<svg xmlns="http://www.w3.org/2000/svg" xmlns:xlink="http://www.w3.org/1999/xlink" width="111.688" height="82.233" viewBox="0 0 111.688 82.233">
  <defs>
    <linearGradient id="linear-gradient" x1="0.206" y1="0.114" x2="0.806" y2="0.784" gradientUnits="objectBoundingBox">
      <stop offset="0" stop-color="#610ffc"/>
      <stop offset="1" stop-color="#4b90fd"/>
    </linearGradient>
  </defs>
  <path id="Path_108151" data-name="Path 108151" d="M-31.579,0h6.532V-30.682h-5.7l-9.66,9.706,3.726,3.91,5.106-5.2Zm11.822-4.048C-17.135-1.2-13.271.552-7.935.552c7.406,0,12.282-4.094,12.282-10.58A9.59,9.59,0,0,0-5.5-19.964a10.6,10.6,0,0,0-6.9,2.576V-25.07H2.277v-5.612H-18.791v17.526l4.554,1.242a8.844,8.844,0,0,1,6.44-2.53c3.5,0,5.52,1.886,5.52,4.692,0,2.53-2.07,4.6-5.7,4.6a11.2,11.2,0,0,1-8.188-3.312Zm39.33-9.66h8.234v-3.634H19.573v-8.97h-4v8.97H7.291v3.634h8.28V-4.37h4ZM-44.85,51h6.532V38.442l11.73-18.124H-34.04l-7.544,12.328L-49.22,20.318h-7.452L-44.85,38.442ZM-31,39.868C-31,47-25.9,51.552-19.136,51.552A13.849,13.849,0,0,0-9.982,48.47L-12.558,44.7a9.086,9.086,0,0,1-5.934,2.208c-3.772,0-6.026-2.346-6.394-5.152H-8.372V40.466C-8.372,33.2-12.88,28.23-19.5,28.23A11.307,11.307,0,0,0-31,39.868Zm11.5-6.992A5.146,5.146,0,0,1-14.03,37.8H-24.978A5.339,5.339,0,0,1-19.5,32.876ZM9.2,51h5.842V36.648c0-6.394-4.646-8.418-9.706-8.418a14.574,14.574,0,0,0-9.706,3.5l2.208,3.91a9.348,9.348,0,0,1,6.486-2.622c2.944,0,4.876,1.472,4.876,3.726v3.082c-1.472-1.794-4.094-2.714-7.038-2.714-3.542,0-7.728,1.886-7.728,7.084,0,4.968,4.186,7.36,7.728,7.36A9.194,9.194,0,0,0,9.2,48.7Zm0-5.336A5.843,5.843,0,0,1,4.508,47.6c-2.3,0-4.186-1.2-4.186-3.266,0-2.162,1.886-3.358,4.186-3.358A5.843,5.843,0,0,1,9.2,42.9ZM20.838,51H26.68V36.326c.966-1.426,3.542-2.53,5.474-2.53a7.4,7.4,0,0,1,1.61.184v-5.7a9.5,9.5,0,0,0-7.084,3.542V28.782H20.838Zm14.628-2.9a14.956,14.956,0,0,0,9.936,3.45c6.164,0,9.614-3.082,9.614-7.13,0-5.52-5.106-6.532-8.924-7.268-2.484-.506-4.232-1.012-4.232-2.392,0-1.288,1.38-2.07,3.5-2.07a9.373,9.373,0,0,1,6.578,2.576l2.346-4a14.192,14.192,0,0,0-8.97-3.036c-5.842,0-9.108,3.266-9.108,6.992,0,5.29,4.922,6.21,8.74,6.946,2.53.506,4.462,1.058,4.462,2.622,0,1.38-1.2,2.254-3.726,2.254A12.717,12.717,0,0,1,38,44.008Z" transform="translate(56.672 30.682)" fill="url(#linear-gradient)"/>
</svg>
