<svg id="Component_60_2" data-name="Component 60 – 2" xmlns="http://www.w3.org/2000/svg" width="97" height="80.625" viewBox="0 0 97 80.625">
  <g id="Group_101123" data-name="Group 101123" transform="translate(-904.002 -306)">
    <g id="Group_101127" data-name="Group 101127">
      <g id="Union_38" data-name="Union 38" transform="translate(-10471 -20263)" fill="#fff">
        <path d="M 11386.4990234375 20598.52734375 C 11386.451171875 20598.52734375 11386.33203125 20598.513671875 11386.2490234375 20598.39453125 L 11382.9853515625 20593.607421875 L 11382.77734375 20593.302734375 L 11382.4072265625 20593.302734375 L 11378.998046875 20593.302734375 C 11377.1806640625 20593.302734375 11375.7021484375 20591.8203125 11375.7021484375 20590 L 11375.7021484375 20573.001953125 C 11375.7021484375 20571.181640625 11377.1806640625 20569.69921875 11378.998046875 20569.69921875 L 11440.0009765625 20569.69921875 C 11441.818359375 20569.69921875 11443.296875 20571.181640625 11443.296875 20573.001953125 L 11443.296875 20590 C 11443.296875 20591.8203125 11441.818359375 20593.302734375 11440.0009765625 20593.302734375 L 11390.5908203125 20593.302734375 L 11390.220703125 20593.302734375 L 11390.0126953125 20593.607421875 L 11386.748046875 20598.39453125 C 11386.669921875 20598.509765625 11386.55859375 20598.52734375 11386.4990234375 20598.52734375 Z" stroke="none"/>
        <path d="M 11386.4990234375 20597.517578125 L 11389.8505859375 20592.6015625 L 11440.0009765625 20592.6015625 C 11441.4326171875 20592.6015625 11442.5966796875 20591.435546875 11442.5966796875 20590 L 11442.5966796875 20573.001953125 C 11442.5966796875 20571.56640625 11441.4326171875 20570.400390625 11440.0009765625 20570.400390625 L 11378.998046875 20570.400390625 C 11377.56640625 20570.400390625 11376.40234375 20571.56640625 11376.40234375 20573.001953125 L 11376.40234375 20590 C 11376.40234375 20591.435546875 11377.56640625 20592.6015625 11378.998046875 20592.6015625 L 11383.1474609375 20592.6015625 L 11383.5634765625 20593.212890625 L 11386.4990234375 20597.517578125 M 11386.4990234375 20599.2265625 C 11386.185546875 20599.2265625 11385.87109375 20599.080078125 11385.671875 20598.7890625 L 11382.4072265625 20594.001953125 L 11378.998046875 20594.001953125 C 11376.791015625 20594.001953125 11375.001953125 20592.20703125 11375.001953125 20590 L 11375.001953125 20573.001953125 C 11375.001953125 20570.7890625 11376.791015625 20569 11378.998046875 20569 L 11440.0009765625 20569 C 11442.208984375 20569 11443.9970703125 20570.7890625 11443.9970703125 20573.001953125 L 11443.9970703125 20590 C 11443.9970703125 20592.20703125 11442.208984375 20594.001953125 11440.0009765625 20594.001953125 L 11390.5908203125 20594.001953125 L 11387.326171875 20598.7890625 C 11387.1279296875 20599.080078125 11386.8134765625 20599.2265625 11386.4990234375 20599.2265625 Z" stroke="none" fill="#000"/>
      </g>
      <line id="Line_244" data-name="Line 244" x2="18" transform="translate(912.5 314.5)" fill="none" stroke="#242424" stroke-linecap="round" stroke-width="1.3"/>
      <line id="Line_245" data-name="Line 245" x2="49.464" transform="translate(912.5 321.113)" fill="none" stroke="#242424" stroke-linecap="round" stroke-width="1.3"/>
    </g>
  </g>
  <g id="Group_101124" data-name="Group 101124" transform="translate(-894.002 -307)">
    <g id="Union_39" data-name="Union 39" transform="translate(991.002 352.197) rotate(180)" fill="#fecd2a">
      <path d="M 38.00249862670898 16.49720001220703 L 1.999800086021423 16.49720001220703 C 1.283090114593506 16.49720001220703 0.7000001072883606 15.91411113739014 0.7000001072883606 15.19740104675293 L 0.7000001072883606 4.704300880432129 C 0.7000001072883606 3.987090587615967 1.283090114593506 3.403600692749023 1.999800086021423 3.403600692749023 L 4.294760227203369 3.403600692749023 L 4.664680004119873 3.403600692749023 L 4.873090267181396 3.097970724105835 L 6.418430328369141 0.8317707180976868 C 6.496190071105957 0.7176907062530518 6.607100009918213 0.7006807327270508 6.666300296783447 0.7006807327270508 C 6.725500106811523 0.7006807327270508 6.836410045623779 0.7176907062530518 6.914080142974854 0.8316506743431091 L 8.45950984954834 3.097970724105835 L 8.667920112609863 3.403600692749023 L 9.037839889526367 3.403600692749023 L 38.00249862670898 3.403600692749023 C 38.71921157836914 3.403600692749023 39.30229949951172 3.987090587615967 39.30229949951172 4.704300880432129 L 39.30229949951172 15.19740104675293 C 39.30229949951172 15.91411113739014 38.71921157836914 16.49720001220703 38.00249862670898 16.49720001220703 Z" stroke="none"/>
      <path d="M 38.00249862670898 15.79720115661621 C 38.33322906494141 15.79720115661621 38.60229873657227 15.52813053131104 38.60229873657227 15.19740104675293 L 38.60229873657227 4.704300880432129 C 38.60229873657227 4.37307071685791 38.33322906494141 4.10360050201416 38.00249862670898 4.10360050201416 L 8.297989845275879 4.10360050201416 L 6.666298866271973 1.710767984390259 L 5.034610271453857 4.10360050201416 L 1.999800086021423 4.10360050201416 C 1.66907012462616 4.10360050201416 1.400000095367432 4.37307071685791 1.400000095367432 4.704300880432129 L 1.400000095367432 15.19740104675293 C 1.400000095367432 15.52813053131104 1.66907012462616 15.79720115661621 1.999800086021423 15.79720115661621 L 38.00249862670898 15.79720115661621 M 38.00249862670898 17.19720077514648 L 1.999800086021423 17.19720077514648 C 0.895500123500824 17.19720077514648 1.31225590394024e-07 16.30170059204102 1.31225590394024e-07 15.19740104675293 L 1.31225590394024e-07 4.704300880432129 C 1.31225590394024e-07 3.599100589752197 0.895500123500824 2.703600645065308 1.999800086021423 2.703600645065308 L 4.294760227203369 2.703600645065308 L 5.840100288391113 0.4374006986618042 C 6.23699951171875 -0.144898846745491 7.095600605010986 -0.1448996961116791 7.492500305175781 0.4374006986618042 L 9.037839889526367 2.703600645065308 L 38.00249862670898 2.703600645065308 C 39.1068000793457 2.703600645065308 40.00230026245117 3.599100589752197 40.00230026245117 4.704300880432129 L 40.00230026245117 15.19740104675293 C 40.00230026245117 16.30170059204102 39.1068000793457 17.19720077514648 38.00249862670898 17.19720077514648 Z" stroke="none" fill="#000"/>
    </g>
    <line id="Line_246" data-name="Line 246" x2="13.877" transform="translate(955.5 339.5)" fill="none" stroke="#000" stroke-linecap="round" stroke-width="1"/>
    <line id="Line_247" data-name="Line 247" x2="28.526" transform="translate(955.5 344.598)" fill="none" stroke="#000" stroke-linecap="round" stroke-width="1"/>
  </g>
  <g id="Group_101126" data-name="Group 101126" transform="translate(-904.002 -309)">
    <g id="Union_40" data-name="Union 40" transform="translate(-10461 -20214)" fill="#fecd2a">
      <path d="M 11387.322265625 20600.58203125 C 11387.2626953125 20600.58203125 11387.15234375 20600.564453125 11387.0732421875 20600.451171875 L 11383.51953125 20595.26171875 L 11383.3115234375 20594.95703125 L 11382.9423828125 20594.95703125 L 11379.0009765625 20594.95703125 C 11377.1806640625 20594.95703125 11375.69921875 20593.474609375 11375.69921875 20591.654296875 L 11375.69921875 20573 C 11375.69921875 20571.1796875 11377.1806640625 20569.697265625 11379.0009765625 20569.697265625 L 11430.998046875 20569.697265625 C 11432.818359375 20569.697265625 11434.2998046875 20571.1796875 11434.2998046875 20573 L 11434.2998046875 20591.654296875 C 11434.2998046875 20593.474609375 11432.818359375 20594.95703125 11430.998046875 20594.95703125 L 11391.7021484375 20594.95703125 L 11391.3330078125 20594.95703125 L 11391.125 20595.259765625 L 11387.5693359375 20600.451171875 C 11387.4912109375 20600.564453125 11387.380859375 20600.58203125 11387.322265625 20600.58203125 Z" stroke="none"/>
      <path d="M 11387.322265625 20599.57421875 L 11390.9638671875 20594.255859375 L 11430.998046875 20594.255859375 C 11432.4326171875 20594.255859375 11433.599609375 20593.08984375 11433.599609375 20591.654296875 L 11433.599609375 20573 C 11433.599609375 20571.564453125 11432.4326171875 20570.3984375 11430.998046875 20570.3984375 L 11379.0009765625 20570.3984375 C 11377.56640625 20570.3984375 11376.3994140625 20571.564453125 11376.3994140625 20573 L 11376.3994140625 20591.654296875 C 11376.3994140625 20593.08984375 11377.56640625 20594.255859375 11379.0009765625 20594.255859375 L 11383.6806640625 20594.255859375 L 11387.322265625 20599.57421875 M 11387.322265625 20601.28125 C 11387.009765625 20601.28125 11386.6962890625 20601.13671875 11386.4970703125 20600.84765625 L 11382.9423828125 20595.65625 L 11379.0009765625 20595.65625 C 11376.79296875 20595.65625 11374.9990234375 20593.86328125 11374.9990234375 20591.654296875 L 11374.9990234375 20573 C 11374.9990234375 20570.79296875 11376.79296875 20568.998046875 11379.0009765625 20568.998046875 L 11430.998046875 20568.998046875 C 11433.2109375 20568.998046875 11435 20570.79296875 11435 20573 L 11435 20591.654296875 C 11435 20593.86328125 11433.2109375 20595.65625 11430.998046875 20595.65625 L 11391.7021484375 20595.65625 L 11388.146484375 20600.84765625 C 11387.947265625 20601.13671875 11387.634765625 20601.28125 11387.322265625 20601.28125 Z" stroke="none" fill="#000"/>
    </g>
    <g id="Group_101125" data-name="Group 101125">
      <line id="Line_248" data-name="Line 248" x2="15.246" transform="translate(921.5 361.5)" fill="none" stroke="#000" stroke-linecap="round" stroke-width="1.3"/>
      <line id="Line_250" data-name="Line 250" x2="45.043" transform="translate(921.5 372.486)" fill="none" stroke="#000" stroke-linecap="round" stroke-width="1.3"/>
      <line id="Line_249" data-name="Line 249" x2="24.169" transform="translate(921.5 367.1)" fill="none" stroke="#000" stroke-linecap="round" stroke-width="1.3"/>
    </g>
  </g>
  <g id="Group_101217" data-name="Group 101217" transform="translate(-946.002 -226.539)" opacity="0">
    <g id="Ellipse_482" data-name="Ellipse 482" transform="translate(977.002 290.164)" fill="#14cca6" stroke="#000" stroke-width="1">
      <circle cx="8.5" cy="8.5" r="8.5" stroke="none"/>
      <circle cx="8.5" cy="8.5" r="8" fill="none"/>
    </g>
    <g id="tick" transform="translate(979.758 293.382)">
      <rect id="Rectangle_9942" data-name="Rectangle 9942" width="11" height="11" transform="translate(0.244 -0.218)" fill="none"/>
      <g id="_7-Check" data-name="7-Check" transform="translate(1.878 1.729)">
        <path id="Path_64143" data-name="Path 64143" d="M32.807,41.1a.783.783,0,0,0-.606,1.278l1.989,2.437a.711.711,0,0,0,.594.264.763.763,0,0,0,.6-.355l4.132-6.655v0a.214.214,0,0,0-.054-.252.219.219,0,0,0-.319.022l0,.005-4.166,4.709a.181.181,0,0,1-.257.014l-1.383-1.258a.78.78,0,0,0-.526-.2Z" transform="translate(-32.026 -37.758)" fill="#fff"/>
      </g>
    </g>
  </g>
  <g id="Group_101218" data-name="Group 101218" transform="translate(-917.002 -273)" opacity="0">
    <g id="Ellipse_482-2" data-name="Ellipse 482" transform="translate(977.002 290.625)" fill="#14cca6" stroke="#000" stroke-width="1">
      <circle cx="5" cy="5" r="5" stroke="none"/>
      <circle cx="5" cy="5" r="4.5" fill="none"/>
    </g>
    <g id="tick-2" data-name="tick" transform="translate(978.724 292.347)">
      <rect id="Rectangle_9942-2" data-name="Rectangle 9942" width="7" height="7" transform="translate(0.278 0.278)" fill="none"/>
      <g id="_7-Check-2" data-name="7-Check" transform="translate(1.173 1.08)">
        <path id="Path_64143-2" data-name="Path 64143" d="M32.514,39.847a.489.489,0,0,0-.378.8l1.243,1.523a.444.444,0,0,0,.371.165.476.476,0,0,0,.374-.221L36.7,37.953v0a.134.134,0,0,0-.034-.157.137.137,0,0,0-.2.014l0,0-2.6,2.941a.113.113,0,0,1-.16.009l-.864-.786a.487.487,0,0,0-.329-.128Z" transform="translate(-32.026 -37.758)" fill="#fff"/>
      </g>
    </g>
  </g>
</svg>
