<svg xmlns="http://www.w3.org/2000/svg" xmlns:xlink="http://www.w3.org/1999/xlink" width="173.399" height="78.561" viewBox="0 0 173.399 78.561">
  <defs>
    <linearGradient id="linear-gradient" x1="0.389" y1="0.361" x2="0.664" y2="1" gradientUnits="objectBoundingBox">
      <stop offset="0" stop-color="#17c4a0"/>
      <stop offset="1" stop-color="#86b210"/>
    </linearGradient>
  </defs>
  <path id="Path_108149" data-name="Path 108149" d="M-25.78,0h5.68V-5.52h3.44v-5H-20.1V-26.68h-7.84L-38.54-10v4.48h12.76Zm0-21.64v11.12h-7.2Zm11.48,8.32C-14.3-6.44-10.9.48-3.26.48c7.6,0,11.04-6.92,11.04-13.8S4.34-27.08-3.26-27.08C-10.9-27.08-14.3-20.2-14.3-13.32Zm16.28,0C1.98-8.4.54-4.56-3.26-4.56c-3.84,0-5.28-3.84-5.28-8.76s1.44-8.72,5.28-8.72C.54-22.04,1.98-18.24,1.98-13.32Zm19,1.4h7.16v-3.16H20.98v-7.8H17.5v7.8H10.3v3.16h7.2V-3.8h3.48Zm-98.74,63.4A12.383,12.383,0,0,0-66.4,44.92l-4.88-2.36a7.232,7.232,0,0,1-6.48,3.88c-4.64,0-8.16-3.72-8.16-8.76s3.52-8.76,8.16-8.76a7.307,7.307,0,0,1,6.48,3.88l4.88-2.4a12.311,12.311,0,0,0-11.36-6.52c-7.8,0-14,5.6-14,13.8S-85.56,51.48-77.76,51.48Zm23.6,0A9.805,9.805,0,0,0-43.92,41.32,9.8,9.8,0,0,0-54.16,31.2a9.785,9.785,0,0,0-10.2,10.12A9.8,9.8,0,0,0-54.16,51.48Zm0-4.52c-3.16,0-4.92-2.6-4.92-5.64,0-3,1.76-5.6,4.92-5.6s4.96,2.6,4.96,5.6C-49.2,44.36-51,46.96-54.16,46.96ZM-27.12,51h5.08V31.68h-5.08V44.76a5.687,5.687,0,0,1-4.4,2.2c-2.16,0-3.56-.88-3.56-3.56V31.68h-5.08V45.4c0,3.76,2,6.08,6.24,6.08a9.042,9.042,0,0,0,6.8-2.92Zm23.16,0H1.12V37.36c0-3.76-2.04-6.16-6.28-6.16a8.846,8.846,0,0,0-6.76,3V31.68H-17V51h5.08V38a5.5,5.5,0,0,1,4.4-2.28c2.16,0,3.56.92,3.56,3.6Zm16.6.48a6.271,6.271,0,0,0,4.24-1.24L15.8,46.4a2.775,2.775,0,0,1-1.76.56c-1.12,0-1.76-.92-1.76-2.12V36.12H16.2V31.68H12.28V26.4H7.16v5.28H3.96v4.44h3.2V46.2C7.16,49.64,9.08,51.48,12.64,51.48ZM19.68,51h5.08V38.24a6.241,6.241,0,0,1,6.16-2.04V31.24a8.265,8.265,0,0,0-6.16,3.08V31.68H19.68ZM36.6,28.84a3.04,3.04,0,1,0-3.04-3.04A3.039,3.039,0,0,0,36.6,28.84ZM34.08,51h5.08V31.68H34.08Zm8.88-9.68c0,6.2,4.44,10.16,10.32,10.16a12.042,12.042,0,0,0,7.96-2.68L59,45.52a7.9,7.9,0,0,1-5.16,1.92c-3.28,0-5.24-2.04-5.56-4.48H62.64V41.84c0-6.32-3.92-10.64-9.68-10.64A9.833,9.833,0,0,0,42.96,41.32Zm10-6.08a4.475,4.475,0,0,1,4.76,4.28H48.2A4.643,4.643,0,0,1,52.96,35.24ZM64.64,48.48a13.005,13.005,0,0,0,8.64,3c5.36,0,8.36-2.68,8.36-6.2,0-4.8-4.44-5.68-7.76-6.32-2.16-.44-3.68-.88-3.68-2.08,0-1.12,1.2-1.8,3.04-1.8a8.15,8.15,0,0,1,5.72,2.24L81,33.84a12.341,12.341,0,0,0-7.8-2.64c-5.08,0-7.92,2.84-7.92,6.08,0,4.6,4.28,5.4,7.6,6.04,2.2.44,3.88.92,3.88,2.28,0,1.2-1.04,1.96-3.24,1.96a11.058,11.058,0,0,1-6.68-2.64Z" transform="translate(91.76 27.08)" fill="url(#linear-gradient)"/>
</svg>
