<svg id="Component_24_3" data-name="Component 24 – 3" xmlns="http://www.w3.org/2000/svg" width="106.643" height="79.534" viewBox="0 0 106.643 79.534">
  <path id="Path_107971" data-name="Path 107971" d="M15.229,13.428V-1.434H9.475l-1,6.625-10.1,4.125L-5.744,5.191l-9.685,10.055,4.218,4.217L-15.429,29.85h-6.089V42.965l5.69.684,3.895,9.521-3.5,4.646,8.415,8.891h2.345l3.042-3.346,10.1,4.357v5.688l6.758.658V59.754l-9.859-2.3-7-6.055L-4.669,48.07-6.6,41.48-7.4,33.8l2.729-7.932L.939,18.473l8.905-4.33Z" transform="translate(23.537 4)" fill="#fff" stroke="#fff" stroke-width="1"/>
  <path id="Path_107659" data-name="Path 107659" d="M58.243,82.553h5.029a.932.932,0,0,0,.932-.932V65.739a.932.932,0,0,0-.932-.932,21.4,21.4,0,0,1,0-42.809.932.932,0,0,0,.932-.932V5.182a.932.932,0,0,0-.932-.932H58.243A3.644,3.644,0,0,0,54.6,7.89v3.063a33.35,33.35,0,0,0-8.144,3.377l-2.168-2.168a3.645,3.645,0,0,0-5.148,0l-7.112,7.112a3.645,3.645,0,0,0,0,5.148L34.2,26.588a33.336,33.336,0,0,0-3.377,8.145H27.76a3.644,3.644,0,0,0-3.64,3.64V48.431a3.644,3.644,0,0,0,3.64,3.64h3.061A33.335,33.335,0,0,0,34.2,60.215l-2.167,2.167a3.645,3.645,0,0,0,0,5.148l7.112,7.112a3.645,3.645,0,0,0,5.148,0l2.168-2.168A33.331,33.331,0,0,0,54.6,75.85v3.063a3.644,3.644,0,0,0,3.64,3.64ZM46.8,70.506a.932.932,0,0,0-1.144.137l-2.681,2.681a1.781,1.781,0,0,1-2.511,0l-7.112-7.112a1.781,1.781,0,0,1,0-2.511l2.679-2.679a.932.932,0,0,0,.137-1.144,31.487,31.487,0,0,1-3.714-8.959.932.932,0,0,0-.906-.712H27.76a1.778,1.778,0,0,1-1.776-1.776V38.373A1.778,1.778,0,0,1,27.76,36.6h3.786a.932.932,0,0,0,.906-.712,31.491,31.491,0,0,1,3.715-8.959.932.932,0,0,0-.137-1.144l-2.68-2.68a1.781,1.781,0,0,1,0-2.511l7.112-7.112a1.781,1.781,0,0,1,2.511,0l2.68,2.681A.932.932,0,0,0,46.8,16.3a31.5,31.5,0,0,1,8.958-3.714.932.932,0,0,0,.712-.906V7.889a1.778,1.778,0,0,1,1.776-1.776h4.1V20.151a23.269,23.269,0,0,0,0,46.5V80.688h-4.1a1.778,1.778,0,0,1-1.776-1.776V75.126a.932.932,0,0,0-.712-.906A31.489,31.489,0,0,1,46.8,70.505Z" transform="translate(-24.12 -3.02)"/>
  <g id="car_1_" data-name="car (1)" transform="translate(28.537 4)">
    <path id="Path_107969" data-name="Path 107969" d="M61.355,283.777H35.746l-.01-.275a7.623,7.623,0,0,0-15.235-.009l-.011.292-.292-.018c-1.568-.1-2.589-1.007-3.827-1.849A5.29,5.29,0,0,1,14,277.432V274.84h1.335a.857.857,0,1,0,0-1.713H14v-3.361l.946.251a.859.859,0,0,0,.318.022l6.233-.728a6.943,6.943,0,0,0,1.982-.528l2.84-1.216,2.256,2.357a6.138,6.138,0,0,0,4.54,1.939l30.688-.007c6.35,0,12.415,0,18.261,2.852a1.807,1.807,0,0,1,1.043,1.669v1.034h-1.42a.857.857,0,0,0,0,1.713H83.1v3.083a1.572,1.572,0,0,1-1.571,1.571H76.61l-.01-.275a7.623,7.623,0,0,0-15.235,0Z" transform="translate(-11.997 -240.137)" fill="#fecd2a" fill-rule="evenodd"/>
    <ellipse id="Ellipse_489" data-name="Ellipse 489" cx="3.5" cy="3" rx="3.5" ry="3" transform="translate(57.463 16.23)" fill="#fecd2a"/>
    <path id="Path_107970" data-name="Path 107970" d="M62.762,93.263a1.814,1.814,0,1,1-1.281-.529,1.814,1.814,0,0,1,1.281.529Zm-4.177-1.615a4.1,4.1,0,1,0,5.792,0,4.1,4.1,0,0,0-5.792,0ZM67.2,88.755a8.172,8.172,0,0,0-11.43-.016,1.142,1.142,0,0,1-1.6-1.629,10.363,10.363,0,0,1,7.308-2.99H61.5a10.362,10.362,0,0,1,7.316,3.013A1.142,1.142,0,1,1,67.2,88.756Zm4.473-4.477a1.142,1.142,0,0,0,1.611-1.62,16.647,16.647,0,0,0-11.794-4.867h-.013A16.65,16.65,0,0,0,49.7,82.637,1.142,1.142,0,1,0,51.3,84.26a14.509,14.509,0,0,1,20.375.017Zm-26.465-4.5a1.142,1.142,0,0,1,.005-1.615,22.934,22.934,0,0,1,16.263-6.7h.013a22.934,22.934,0,0,1,16.269,6.722A1.142,1.142,0,1,1,76.152,79.8a20.846,20.846,0,0,0-29.323-.018,1.142,1.142,0,0,1-1.615-.005ZM2.868,105.617a1.142,1.142,0,0,0,.425.03l6.233-.728a7.13,7.13,0,0,0,2.061-.55l2.657-1.138,2.119,2.214a6.424,6.424,0,0,0,4.744,2.028h0l30.688-.007c6.352,0,12.341,0,18.136,2.823a1.522,1.522,0,0,1,.883,1.412v.749H69.681a1.142,1.142,0,1,0,0,2.285h1.135v2.8a1.286,1.286,0,0,1-1.285,1.285H64.883a7.908,7.908,0,0,0-15.806,0H24.019a7.908,7.908,0,0,0-15.806-.009,5.72,5.72,0,0,1-3.092-1.39c-.191-.134-.387-.271-.591-.41a5,5,0,0,1-2.249-4.25V110.45H3.33a1.142,1.142,0,0,0,0-2.285H2.28v-2.7l.588.156Zm18.669-5.509-5.05,2.163,1.527,1.6a4.082,4.082,0,0,0,3.093,1.322h6.525v-6.21h-.587A13.367,13.367,0,0,0,21.537,100.108Zm18.289-.285a4.722,4.722,0,0,0-2.781-.845H29.917v6.208l17.912,0ZM56.98,124.732a5.626,5.626,0,1,0-5.626-5.626A5.626,5.626,0,0,0,56.98,124.732Zm-40.864,0a5.626,5.626,0,1,0-5.626-5.626A5.626,5.626,0,0,0,16.116,124.732ZM3.245,118.9c.2.133.383.264.566.392A7.57,7.57,0,0,0,8.46,121.1a7.91,7.91,0,0,0,15.311,0H49.325a7.91,7.91,0,0,0,15.31,0h4.9a3.573,3.573,0,0,0,3.57-3.57V111.7a3.781,3.781,0,0,0-2.167-3.466c-6.2-3.021-12.668-3.054-18.929-3.054h-.09a1.165,1.165,0,0,0-.124-.1L41.1,97.924a7.064,7.064,0,0,0-4.052-1.231h-10a15.553,15.553,0,0,0-6.408,1.314l-9.95,4.262a4.859,4.859,0,0,1-1.427.381l-6.018.7-1.812-.479A1.142,1.142,0,0,0,0,103.978v8.779A7.229,7.229,0,0,0,3.245,118.9Z" transform="translate(0.005 -75.461)" fill-rule="evenodd"/>
  </g>
</svg>
