<svg id="Component_61_2" data-name="Component 61 – 2" xmlns="http://www.w3.org/2000/svg" width="84.659" height="79.184" viewBox="0 0 84.659 79.184">
  <g id="Ellipse_464" data-name="Ellipse 464" transform="translate(22 1.184)" fill="#fecd2a" stroke="#fecd2a" stroke-width="1">
    <circle cx="2" cy="2" r="2" stroke="none"/>
    <circle cx="2" cy="2" r="1.5" fill="none"/>
  </g>
  <g id="Ellipse_465" data-name="Ellipse 465" transform="translate(58 1.184)" fill="#fecd2a" stroke="#fecd2a" stroke-width="1">
    <circle cx="2" cy="2" r="2" stroke="none"/>
    <circle cx="2" cy="2" r="1.5" fill="none"/>
  </g>
  <path id="Path_107765" data-name="Path 107765" d="M630.774,382.191l2.771-6.4h5.438l-3.43,6.4Z" transform="translate(-606.229 -304.816)" fill="#fecd2a"/>
  <path id="Path_107766" data-name="Path 107766" d="M638.983,382.191l-2.771-6.4h-5.438l3.43,6.4Z" transform="translate(-579.229 -304.816)" fill="#fecd2a"/>
  <path id="Path_107764" data-name="Path 107764" d="M608.217,324.2l39.021,2.7,41.4-2.7.779,22.166v30.713l-7.99-1.48-30.688-2.266-27.688,1.2-14.829,1.8Z" transform="translate(-606.229 -304.816)" fill="#fff"/>
  <path id="Path_107763" data-name="Path 107763" d="M629.234,337.371l11.173,4.028,4.518,8.24a32.2,32.2,0,0,0,7.333.616,14.581,14.581,0,0,0,7.025-2.3c1.245-.788.944-2.015,1.6-3.331a18.853,18.853,0,0,0,1.673-5.58h7.992l3.656-8.635a7.536,7.536,0,0,0-3.656-2.425c-2.45-.788-6.79-.985-11.268-2.956-2.65-3.014-4.559-5.54-8.5-5.864-2.683-.221-7.312,6.959-10.381,6.959-2.426,0-.321,3.136-2.664,2.207a7.706,7.706,0,0,0-5.829.409C627.88,330.238,629.234,337.371,629.234,337.371Z" transform="translate(-608.448 -288.791)" fill="#fecd2a"/>
  <g id="ott" transform="translate(-2 -4)">
    <path id="Path_107740" data-name="Path 107740" d="M85.4,22.475a3.7,3.7,0,0,0-2.936-.86,262.494,262.494,0,0,1-28.279,2.594A9.921,9.921,0,0,0,52,18.966L60.77,10.2a3.281,3.281,0,0,0,1.666.464,3.332,3.332,0,0,0,0-6.663A3.293,3.293,0,0,0,59.1,7.332a3.36,3.36,0,0,0,.314,1.393L50.6,17.545a9.895,9.895,0,0,0-12.521-.014L29.268,8.725a3.2,3.2,0,0,0,.314-1.393A3.293,3.293,0,0,0,26.251,4a3.332,3.332,0,1,0,0,6.663,3.281,3.281,0,0,0,1.666-.464l8.766,8.766a9.874,9.874,0,0,0-1.12,1.666,1,1,0,0,0,1.775.929,7.9,7.9,0,0,1,14.843,2.7A261.888,261.888,0,0,1,6.206,21.6a3.655,3.655,0,0,0-2.936.86A3.714,3.714,0,0,0,2,25.247V73.953a3.659,3.659,0,0,0,4.192,3.618c7.141-1.051,14.324-1.789,21.506-2.239L24.844,81.19H21.731a1,1,0,1,0,0,1.994H35.4a1,1,0,1,0,0-1.994h-3l3.031-6.24q8.889-.307,17.765,0l3.031,6.24h-3a1,1,0,1,0,0,1.994H66.887a1,1,0,1,0,0-1.994H63.774L60.92,75.332q10.774.676,21.506,2.239a3.5,3.5,0,0,0,.533.041,3.707,3.707,0,0,0,2.4-.888,3.647,3.647,0,0,0,1.3-2.786V25.247A3.7,3.7,0,0,0,85.4,22.475ZM24.9,7.345a1.34,1.34,0,0,1,1.338-1.338,1.323,1.323,0,0,1,1.338,1.338,1.34,1.34,0,0,1-1.338,1.338A1.358,1.358,0,0,1,24.9,7.345ZM62.422,6.021A1.34,1.34,0,0,1,63.76,7.359,1.358,1.358,0,0,1,62.422,8.7a1.34,1.34,0,0,1-1.338-1.338A1.315,1.315,0,0,1,62.422,6.021ZM30.183,81.176H27.07l2.922-6.008c.218-.014.423-.014.642-.027.847-.041,1.693-.082,2.54-.109Zm28.484-5.994,2.922,6.008H58.476l-2.99-6.158c.847.041,1.707.068,2.553.123C58.257,75.155,58.449,75.168,58.667,75.182Zm26-1.243a1.6,1.6,0,0,1-.574,1.243,1.635,1.635,0,0,1-1.338.382Q71.1,73.864,59.377,73.2h-.014c-.1,0-.191-.014-.287-.014-.314-.014-.628-.027-.942-.055-1.393-.068-2.731-.137-4-.178a1.325,1.325,0,0,1-.232-.014h-.027c-3.182-.109-6.363-.178-9.558-.178s-6.363.055-9.558.178H34.73a1.325,1.325,0,0,0-.232.014c-1.27.041-2.608.109-4,.178-.314.014-.628.027-.942.055-.1,0-.191.014-.287.014h-.014q-11.716.676-23.377,2.362a1.684,1.684,0,0,1-1.338-.382,1.623,1.623,0,0,1-.573-1.243V25.247A1.6,1.6,0,0,1,4.54,24a1.649,1.649,0,0,1,1.338-.382,264.39,264.39,0,0,0,76.835,0A1.684,1.684,0,0,1,84.051,24a1.623,1.623,0,0,1,.573,1.243V73.939Z" transform="translate(0)"/>
    <path id="Path_107741" data-name="Path 107741" d="M79.606,20.533a268.211,268.211,0,0,1-73.053,0,.984.984,0,0,0-.792.232,1,1,0,0,0-.341.751V65.593a1,1,0,0,0,.341.751.984.984,0,0,0,.792.232,269.3,269.3,0,0,1,73.053,0c.041,0,.1.014.137.014a.954.954,0,0,0,.655-.246,1,1,0,0,0,.341-.751V21.516a1,1,0,0,0-.341-.751.984.984,0,0,0-.792-.232Zm-.86,43.914a270.429,270.429,0,0,0-71.332,0V22.663a270.042,270.042,0,0,0,71.332,0Z" transform="translate(1.58 6.478)"/>
    <path id="Path_107742" data-name="Path 107742" d="M32.549,32.914a4.234,4.234,0,0,0-4.9,2.151A7.261,7.261,0,1,0,24.783,49h4.425a11.985,11.985,0,1,0,0-2.243H24.783a5.02,5.02,0,1,1,2.9-9.124,1.13,1.13,0,0,0,1.77-.839,1.983,1.983,0,0,1,3.219-1.373,1.121,1.121,0,0,0,1.129.168,1.109,1.109,0,0,0,.687-.915,6.7,6.7,0,0,1,13.335,0,1.116,1.116,0,0,0,1.816.748,1.983,1.983,0,0,1,3.219,1.373,1.124,1.124,0,0,0,.641.931,1.15,1.15,0,0,0,1.129-.092,5.022,5.022,0,1,1,2.9,9.124,1.114,1.114,0,1,0,0,2.228,7.255,7.255,0,1,0,0-14.51,7.355,7.355,0,0,0-2.868.58A4.242,4.242,0,0,0,49.744,32.9a8.945,8.945,0,0,0-17.2.015Zm8.59,5.2a9.757,9.757,0,1,1-9.75,9.765A9.774,9.774,0,0,1,41.139,38.117Z" transform="translate(3.48 6.572)"/>
    <path id="Path_107743" data-name="Path 107743" d="M31.637,47.507a2.519,2.519,0,0,0,2.663-.273l4.151-3.223a2.536,2.536,0,0,0,.983-1.994,2.5,2.5,0,0,0-.983-1.994L34.3,36.8a2.54,2.54,0,0,0-2.663-.273A2.5,2.5,0,0,0,30.23,38.8v6.431a2.477,2.477,0,0,0,1.406,2.28Zm.587-8.7a.5.5,0,0,1,.287-.464.482.482,0,0,1,.232-.055.515.515,0,0,1,.314.109l4.151,3.223a.512.512,0,0,1,0,.819l-4.151,3.223a.516.516,0,0,1-.833-.41Z" transform="translate(10.317 12.321)"/>
  </g>
</svg>
