<svg xmlns="http://www.w3.org/2000/svg" xmlns:xlink="http://www.w3.org/1999/xlink" width="129.149" height="79.938" viewBox="0 0 129.149 79.938">
  <defs>
    <linearGradient id="linear-gradient" x1="0.234" x2="0.955" y2="1" gradientUnits="objectBoundingBox">
      <stop offset="0" stop-color="#fc7f7f"/>
      <stop offset="1" stop-color="#eb2a2a"/>
    </linearGradient>
  </defs>
  <path id="Path_108152" data-name="Path 108152" d="M-36.729,0h5.964V-28.014h-5.208l-8.82,8.862,3.4,3.57,4.662-4.746Zm10.164-13.986C-26.565-6.762-23,.5-14.973.5c7.98,0,11.592-7.266,11.592-14.49S-6.993-28.434-14.973-28.434C-23-28.434-26.565-21.21-26.565-13.986Zm17.094,0c0,5.166-1.512,9.2-5.5,9.2-4.032,0-5.544-4.032-5.544-9.2s1.512-9.156,5.544-9.156C-10.983-23.142-9.471-19.152-9.471-13.986Zm8.946,0C-.525-6.762,3.045.5,11.067.5c7.98,0,11.592-7.266,11.592-14.49S19.047-28.434,11.067-28.434C3.045-28.434-.525-21.21-.525-13.986Zm17.094,0c0,5.166-1.512,9.2-5.5,9.2-4.032,0-5.544-4.032-5.544-9.2s1.512-9.156,5.544-9.156C15.057-23.142,16.569-19.152,16.569-13.986Zm19.95,1.47h7.518v-3.318H36.519v-8.19H32.865v8.19h-7.56v3.318h7.56V-3.99h3.654ZM-49.812,51.5a13,13,0,0,0,11.928-6.888l-5.124-2.478a7.594,7.594,0,0,1-6.8,4.074c-4.872,0-8.568-3.906-8.568-9.2s3.7-9.2,8.568-9.2a7.672,7.672,0,0,1,6.8,4.074l5.124-2.52a12.927,12.927,0,0,0-11.928-6.846c-8.19,0-14.7,5.88-14.7,14.49S-58,51.5-49.812,51.5ZM-34.44,51h5.334V22.986H-34.44Zm13.272-23.268a3.191,3.191,0,0,0,3.192-3.192,3.191,3.191,0,0,0-3.192-3.192A3.218,3.218,0,0,0-24.36,24.54,3.218,3.218,0,0,0-21.168,27.732ZM-23.814,51h5.334V30.714h-5.334Zm9.324-10.164c0,6.51,4.662,10.668,10.836,10.668A12.645,12.645,0,0,0,4.7,48.69L2.352,45.246a8.3,8.3,0,0,1-5.418,2.016c-3.444,0-5.5-2.142-5.838-4.7H6.174V41.382c0-6.636-4.116-11.172-10.164-11.172A10.324,10.324,0,0,0-14.49,40.836Zm10.5-6.384a4.7,4.7,0,0,1,5,4.494h-10A4.875,4.875,0,0,1-3.99,34.452ZM23.73,51h5.334V36.678c0-3.948-2.142-6.468-6.594-6.468a9.289,9.289,0,0,0-7.1,3.15V30.714H10.038V51h5.334V37.35a5.777,5.777,0,0,1,4.62-2.394c2.268,0,3.738.966,3.738,3.78Zm17.43.5a6.585,6.585,0,0,0,4.452-1.3L44.478,46.17a2.914,2.914,0,0,1-1.848.588c-1.176,0-1.848-.966-1.848-2.226V35.376H44.9V30.714H40.782V25.17H35.406v5.544h-3.36v4.662h3.36V45.96C35.406,49.572,37.422,51.5,41.16,51.5Zm5.628-3.15A13.656,13.656,0,0,0,55.86,51.5c5.628,0,8.778-2.814,8.778-6.51,0-5.04-4.662-5.964-8.148-6.636-2.268-.462-3.864-.924-3.864-2.184,0-1.176,1.26-1.89,3.192-1.89a8.558,8.558,0,0,1,6.006,2.352l2.142-3.654a12.958,12.958,0,0,0-8.19-2.772c-5.334,0-8.316,2.982-8.316,6.384,0,4.83,4.494,5.67,7.98,6.342,2.31.462,4.074.966,4.074,2.394,0,1.26-1.092,2.058-3.4,2.058A11.611,11.611,0,0,1,49.1,44.616Z" transform="translate(64.512 28.434)" fill="url(#linear-gradient)"/>
</svg>
