<svg xmlns="http://www.w3.org/2000/svg" xmlns:xlink="http://www.w3.org/1999/xlink" width="453.215" height="746.491" viewBox="0 0 453.215 746.491">
  <defs>
    <filter id="Path_64708" x="0" y="0" width="453.215" height="746.491" filterUnits="userSpaceOnUse">
      <feOffset dx="1" dy="6" input="SourceAlpha"/>
      <feGaussianBlur stdDeviation="6" result="blur"/>
      <feFlood flood-color="#bababa" flood-opacity="0.2"/>
      <feComposite operator="in" in2="blur"/>
      <feComposite in="SourceGraphic"/>
    </filter>
    <filter id="Path_64727" x="8.132" y="6.137" width="435.083" height="435.083" filterUnits="userSpaceOnUse">
      <feOffset dy="3" input="SourceAlpha"/>
      <feGaussianBlur stdDeviation="3" result="blur-2"/>
      <feFlood flood-opacity="0.161"/>
      <feComposite operator="in" in2="blur-2"/>
      <feComposite in="SourceGraphic"/>
    </filter>
  </defs>
  <g id="Group_101323" data-name="Group 101323" transform="translate(32 12)">
    <g id="Group_96417" data-name="Group 96417" transform="translate(-15 0)">
      <g transform="matrix(1, 0, 0, 1, -17, -12)" filter="url(#Path_64708)">
        <path id="Path_64708-2" data-name="Path 64708" d="M417.215,598.223V.023H0v598.2L208.607,710.513Z" transform="translate(17 11.98)" fill="#0e2359"/>
      </g>
      <text id="FEB_2023_FEB_2024" data-name="FEB 2023 – FEB 2024" transform="translate(200.313 573.92)" fill="#fff" font-size="27" font-family="Helvetica"><tspan x="-135" y="0">FEB 2023 – FEB 2024</tspan></text>
      <text id="INDIA" transform="translate(205.304 637.463)" fill="#fff" font-size="33" font-family="Helvetica"><tspan x="-44" y="0">INDIA</tspan></text>
      <g transform="matrix(1, 0, 0, 1, -17, -12)" filter="url(#Path_64727)">
        <path id="Path_64727-2" data-name="Path 64727" d="M0,0H417.083V417.083H0Z" transform="translate(17.13 12.14)" fill="#e60823"/>
      </g>
      <g id="Group_96415" data-name="Group 96415" transform="translate(28.587 29.942)">
        <path id="Path_64709" data-name="Path 64709" d="M127.36,88.193v5.649q0,15.692-10.042,25.421c-6.7,6.486-15.378,9.73-25.943,9.73-11.3,0-20.714-3.662-28.141-10.984a36.71,36.71,0,0,1-11.09-26.99A37.093,37.093,0,0,1,63.129,63.922c7.428-7.428,16.528-11.089,27.409-11.089,13.7,0,25.63,6.7,31.906,17.052L110.1,77c-3.453-5.963-10.986-10.147-19.667-10.147q-10.514,0-17.262,6.9c-4.5,4.5-6.7,10.252-6.7,17.261a23.34,23.34,0,0,0,6.8,17.157c4.6,4.5,10.671,6.7,18.2,6.7,11.193,0,18.726-5.231,21.34-13.913H90.642V88.193Z" transform="translate(-52.143 -52.833)" fill="#fff"/>
        <path id="Path_64710" data-name="Path 64710" d="M218.209,101.8c2.386-6.7,8.349-10.043,15.107-10.043v15.064a14.343,14.343,0,0,0-10.535,2.511c-3.081,2.2-4.572,5.754-4.572,10.774v25H205.39V92.807h12.819Z" transform="translate(-121.374 -70.419)" fill="#fff"/>
        <path id="Path_64711" data-name="Path 64711" d="M284.182,124.159c1.779,6.59,6.7,9.833,14.751,9.833,5.125,0,9.1-1.778,11.716-5.23l10.881,6.277c-5.126,7.428-12.763,11.194-22.806,11.194-8.684,0-15.586-2.616-20.818-7.846s-7.846-11.822-7.846-19.772A27.063,27.063,0,0,1,277.8,98.948C282.929,93.612,289.624,91,297.677,91c7.637,0,14.018,2.615,18.936,7.951a27.5,27.5,0,0,1,7.531,19.667,35.312,35.312,0,0,1-.523,5.544ZM310.649,113.7c-1.568-7.113-6.8-10.566-12.972-10.566-7.218,0-12.135,3.871-13.7,10.566Z" transform="translate(-150.59 -70.074)" fill="#fff"/>
        <path id="Path_64712" data-name="Path 64712" d="M422.451,92.462h13.495v52.306H422.451V138.6c-4.079,5.125-9.728,7.637-17.051,7.637a23.764,23.764,0,0,1-17.994-7.951,28.047,28.047,0,0,1-7.428-19.667,27.79,27.79,0,0,1,7.428-19.562C392.428,93.717,398.391,91,405.4,91c7.323,0,12.972,2.51,17.051,7.636Zm-14.541,40.9a14.035,14.035,0,0,0,10.357-4.079,14.431,14.431,0,0,0,4.184-10.671,14.029,14.029,0,0,0-4.184-10.566,14.908,14.908,0,0,0-20.713,0,14.347,14.347,0,0,0-4.081,10.566,14.764,14.764,0,0,0,4.081,10.671A14.031,14.031,0,0,0,407.91,133.364Z" transform="translate(-200.246 -70.074)" fill="#fff"/>
        <path id="Path_64713" data-name="Path 64713" d="M534.432,94.572H522.61V116.33c0,5.65,4.081,5.754,11.822,5.336v12.239c-18.517,2.092-25.317-3.243-25.317-17.575V94.572h-9.1V81.6h9.1V71.034l13.495-4.08V81.6h11.822Z" transform="translate(-254.475 -59.212)" fill="#fff"/>
        <path id="Path_64714" data-name="Path 64714" d="M97,223.27a24.542,24.542,0,0,1,17.783,7.114,24.749,24.749,0,0,1,0,34.94A24.544,24.544,0,0,1,97,272.438H84.137V296.5H69.7V223.27Zm0,35.672c6.172,0,10.67-4.811,10.67-11.088,0-6.382-4.5-11.089-10.67-11.089H84.137v22.177Z" transform="translate(-60.075 -129.83)" fill="#fff"/>
        <path id="Path_64715" data-name="Path 64715" d="M183.053,297.056V224.505h13.5v72.551Z" transform="translate(-111.283 -130.388)" fill="#fff"/>
        <path id="Path_64716" data-name="Path 64716" d="M271.515,260.226H285.01v52.306H271.515v-6.172c-4.079,5.126-9.728,7.637-17.051,7.637a23.764,23.764,0,0,1-17.994-7.951,29.613,29.613,0,0,1,0-39.229c5.022-5.336,10.986-8.056,17.994-8.056,7.323,0,12.972,2.51,17.051,7.637Zm-14.542,40.9a14.032,14.032,0,0,0,10.357-4.079,14.428,14.428,0,0,0,4.184-10.67,14.029,14.029,0,0,0-4.184-10.566,14.907,14.907,0,0,0-20.713,0,14.348,14.348,0,0,0-4.081,10.566,14.762,14.762,0,0,0,4.081,10.67A14.029,14.029,0,0,0,256.974,301.129Z" transform="translate(-132.059 -145.864)" fill="#fff"/>
        <path id="Path_64717" data-name="Path 64717" d="M360.166,306.046a27.62,27.62,0,0,1,19.772-47.285c10.148,0,19.144,5.23,23.434,13.495l-11.612,6.8a12.933,12.933,0,0,0-11.927-7.009c-8.054,0-14.018,5.963-14.018,14.332a14.3,14.3,0,0,0,3.976,10.252,13.636,13.636,0,0,0,10.042,3.975c5.441,0,9.939-2.616,12.032-6.9l11.716,6.7a27.85,27.85,0,0,1-43.415,5.649Z" transform="translate(-187.752 -145.864)" fill="#fff"/>
        <path id="Path_64718" data-name="Path 64718" d="M473.5,291.923c1.779,6.59,6.695,9.833,14.751,9.833,5.125,0,9.1-1.778,11.716-5.23l10.881,6.277C505.723,310.231,498.087,314,488.043,314c-8.682,0-15.586-2.616-20.818-7.846s-7.846-11.822-7.846-19.772a27.063,27.063,0,0,1,7.741-19.667c5.128-5.336,11.823-7.951,19.876-7.951,7.637,0,14.018,2.615,18.936,7.951a27.5,27.5,0,0,1,7.531,19.667,35.276,35.276,0,0,1-.523,5.544Zm26.466-10.461C498.4,274.348,493.169,270.9,487,270.9c-7.218,0-12.135,3.871-13.7,10.566Z" transform="translate(-236.117 -145.864)" fill="#fff"/>
        <path id="Path_64719" data-name="Path 64719" d="M106.018,397.707v13.119H86.247v56.451H71.81V410.826H52.143V397.707Z" transform="translate(-52.143 -208.634)" fill="#fff"/>
        <path id="Path_64720" data-name="Path 64720" d="M168.675,481.761a27.618,27.618,0,1,1,19.667-47.18,27.567,27.567,0,0,1-19.667,47.18Zm0-13.182a13.722,13.722,0,0,0,10.148-4.079,15.186,15.186,0,0,0,0-20.713,14.659,14.659,0,0,0-20.295,0,15.475,15.475,0,0,0,0,20.713A13.718,13.718,0,0,0,168.675,468.58Z" transform="translate(-92.311 -221.654)" fill="#fff"/>
        <path id="Path_64721" data-name="Path 64721" d="M76.257,639.832,55.753,566.6H70.922L84.938,620.9,100.212,566.6h12.344L127.934,620.9,141.953,566.6h15.169l-20.5,73.228H120.193L106.384,591.5l-13.7,48.331Z" transform="translate(-53.774 -284.935)" fill="#fff"/>
        <path id="Path_64722" data-name="Path 64722" d="M265.995,657.33a27.332,27.332,0,1,1,19.667-7.951A26.747,26.747,0,0,1,265.995,657.33Zm0-13.182a13.721,13.721,0,0,0,10.148-4.079,15.186,15.186,0,0,0,0-20.714,14.658,14.658,0,0,0-20.295,0,15.476,15.476,0,0,0,0,20.714A13.718,13.718,0,0,0,265.995,644.148Z" transform="translate(-136.277 -300.969)" fill="#fff"/>
        <path id="Path_64723" data-name="Path 64723" d="M370.188,612.9c2.511-6.7,8.788-10.043,15.9-10.043v15.064A15.714,15.714,0,0,0,375,620.433c-3.242,2.2-4.812,5.754-4.812,10.774v25H356.693V603.9h13.495Z" transform="translate(-189.727 -301.314)" fill="#fff"/>
        <path id="Path_64724" data-name="Path 64724" d="M476.671,639.832H460.979L441.94,616.084v23.747H428.445V566.6H441.94V610.54l17.993-23.014h16.111l-21.027,25.839Z" transform="translate(-222.142 -284.935)" fill="#fff"/>
      </g>
      <g id="Group_96416" data-name="Group 96416" transform="translate(288.041 363.583)">
        <path id="Path_64725" data-name="Path 64725" d="M525.394,673.23a11.828,11.828,0,1,1,11.829,11.722A11.644,11.644,0,0,1,525.394,673.23Zm21.525-.053c0-5.807-4.049-9.857-9.7-9.857s-9.7,4.1-9.7,9.91a9.7,9.7,0,1,0,19.395-.053Zm-13.746-5.967h4.1c2.717,0,4.475,1.119,4.475,3.516v.055a3.082,3.082,0,0,1-2.4,3.144l3.091,4.954H539.78l-2.825-4.529H535.73v4.529h-2.558Zm4.05,5.381c1.332,0,2.023-.587,2.023-1.705v-.053c0-1.225-.746-1.652-2.023-1.652H535.73v3.41Z" transform="translate(-525.394 -661.403)" fill="#fff"/>
      </g>
      <text id="Certified" transform="translate(51.459 513.715)" fill="#fff" stroke="#fff" stroke-width="1" font-size="82" font-family="Helvetica"><tspan x="0" y="0">Certified</tspan></text>
    </g>
  </g>
</svg>
