<svg xmlns="http://www.w3.org/2000/svg" xmlns:xlink="http://www.w3.org/1999/xlink" width="162.708" height="79.938" viewBox="0 0 162.708 79.938">
  <defs>
    <linearGradient id="linear-gradient" x1="0.347" y1="0.035" x2="0.593" y2="0.9" gradientUnits="objectBoundingBox">
      <stop offset="0" stop-color="#ffd855"/>
      <stop offset="1" stop-color="#ffab0f"/>
    </linearGradient>
  </defs>
  <path id="Path_108153" data-name="Path 108153" d="M-29.085,0h5.964V-28.014h-5.208l-8.82,8.862,3.4,3.57,4.662-4.746Zm10.164-13.986C-18.921-6.762-15.351.5-7.329.5.651.5,4.263-6.762,4.263-13.986S.651-28.434-7.329-28.434C-15.351-28.434-18.921-21.21-18.921-13.986Zm17.094,0c0,5.166-1.512,9.2-5.5,9.2-4.032,0-5.544-4.032-5.544-9.2s1.512-9.156,5.544-9.156C-3.339-23.142-1.827-19.152-1.827-13.986Zm19.95,1.47h7.518v-3.318H18.123v-8.19H14.469v8.19H6.909v3.318h7.56V-3.99h3.654ZM-71.274,51H-63.8L-53,22.986h-6.8l-7.728,21.546-7.77-21.546h-6.8Zm16.926-10.164c0,6.51,4.662,10.668,10.836,10.668a12.645,12.645,0,0,0,8.358-2.814l-2.352-3.444a8.3,8.3,0,0,1-5.418,2.016c-3.444,0-5.5-2.142-5.838-4.7h15.078V41.382c0-6.636-4.116-11.172-10.164-11.172A10.324,10.324,0,0,0-54.348,40.836Zm10.5-6.384a4.7,4.7,0,0,1,5,4.494h-10A4.875,4.875,0,0,1-43.848,34.452ZM-29.82,51h5.334V37.6a6.8,6.8,0,0,1,5-2.31,6.752,6.752,0,0,1,1.47.168V30.252a8.678,8.678,0,0,0-6.468,3.234V30.714H-29.82Zm21.924.5a6.585,6.585,0,0,0,4.452-1.3L-4.578,46.17a2.914,2.914,0,0,1-1.848.588c-1.176,0-1.848-.966-1.848-2.226V35.376h4.116V30.714H-8.274V25.17H-13.65v5.544h-3.36v4.662h3.36V45.96C-13.65,49.572-11.634,51.5-7.9,51.5ZM2.142,27.732a3.192,3.192,0,1,0,0-6.384,3.192,3.192,0,1,0,0,6.384ZM-.5,51H4.83V30.714H-.5ZM8.82,40.836c0,6.258,4.494,10.668,10.752,10.668,4.158,0,6.678-1.806,8.022-3.7l-3.486-3.234a5.12,5.12,0,0,1-4.284,2.184c-3.234,0-5.5-2.394-5.5-5.922s2.268-5.88,5.5-5.88a4.919,4.919,0,0,1,4.284,2.184l3.486-3.276c-1.344-1.848-3.864-3.654-8.022-3.654C13.314,30.21,8.82,34.62,8.82,40.836ZM43.26,51h5.334V37.9c0-5.838-4.242-7.686-8.862-7.686A13.307,13.307,0,0,0,30.87,33.4l2.016,3.57a8.535,8.535,0,0,1,5.922-2.394c2.688,0,4.452,1.344,4.452,3.4v2.814c-1.344-1.638-3.738-2.478-6.426-2.478-3.234,0-7.056,1.722-7.056,6.468,0,4.536,3.822,6.72,7.056,6.72a8.4,8.4,0,0,0,6.426-2.6Zm0-4.872a5.335,5.335,0,0,1-4.284,1.764c-2.1,0-3.822-1.092-3.822-2.982,0-1.974,1.722-3.066,3.822-3.066a5.335,5.335,0,0,1,4.284,1.764ZM53.886,51H59.22V22.986H53.886Zm8.862-2.646A13.656,13.656,0,0,0,71.82,51.5c5.628,0,8.778-2.814,8.778-6.51,0-5.04-4.662-5.964-8.148-6.636-2.268-.462-3.864-.924-3.864-2.184,0-1.176,1.26-1.89,3.192-1.89a8.558,8.558,0,0,1,6.006,2.352l2.142-3.654a12.958,12.958,0,0,0-8.19-2.772c-5.334,0-8.316,2.982-8.316,6.384,0,4.83,4.494,5.67,7.98,6.342,2.31.462,4.074.966,4.074,2.394,0,1.26-1.092,2.058-3.4,2.058a11.611,11.611,0,0,1-7.014-2.772Z" transform="translate(82.11 28.434)" fill="url(#linear-gradient)"/>
</svg>
